<?xml version="1.0" encoding="utf-8"?>
<!-- Generator: Adobe Illustrator 24.1.0, SVG Export Plug-In . SVG Version: 6.00 Build 0)  -->
<svg version="1.1" id="Layer_1" xmlns="http://www.w3.org/2000/svg" xmlns:xlink="http://www.w3.org/1999/xlink" x="0px" y="0px"
	 viewBox="0 0 1200 848" style="enable-background:new 0 0 1200 848;" xml:space="preserve">
<style type="text/css">
	.st0{fill:#FDC100;}
	.st1{fill:#FFDA00;}
	.st2{fill:#F7A600;}
	.st3{clip-path:url(#SVGID_2_);fill:#575756;}
</style>
<polyline class="st0" points="596.1,318.9 563.3,286.1 596.1,253.3 "/>
<polyline class="st0" points="519.2,318.9 552,286.1 519.2,253.3 "/>
<polyline class="st0" points="524.9,247.7 557.6,280.5 590.4,247.7 "/>
<polyline class="st1" points="524.9,324.5 557.6,291.7 590.4,324.5 "/>
<polyline class="st0" points="680.8,318.9 648,286.1 680.8,253.3 "/>
<polyline class="st2" points="604,318.9 636.8,286.1 604,253.3 "/>
<polyline class="st0" points="609.6,247.7 642.4,280.5 675.2,247.7 "/>
<polyline class="st0" points="609.6,324.5 642.4,291.7 675.2,324.5 "/>
<polyline class="st0" points="765.6,318.9 732.8,286.1 765.6,253.3 "/>
<polyline class="st0" points="688.7,318.9 721.5,286.1 688.7,253.3 "/>
<polyline class="st0" points="694.3,247.7 727.1,280.5 759.9,247.7 "/>
<polyline class="st0" points="694.3,324.5 727.1,291.7 759.9,324.5 "/>
<polyline class="st0" points="511.3,318.9 478.5,286.1 511.3,253.3 "/>
<polyline class="st0" points="434.5,318.9 467.3,286.1 434.5,253.3 "/>
<polyline class="st2" points="440.1,247.7 472.9,280.5 505.7,247.7 "/>
<polyline class="st0" points="440.1,324.5 472.9,291.7 505.7,324.5 "/>
<polyline class="st0" points="519.2,234.1 552,201.3 519.2,168.5 "/>
<polyline class="st1" points="524.8,239.7 557.6,206.9 590.4,239.7 "/>
<polyline class="st0" points="680.8,234.1 648,201.3 680.8,168.5 "/>
<polyline class="st0" points="604,234.1 636.8,201.3 604,168.5 "/>
<polyline class="st1" points="609.6,162.9 642.4,195.7 675.2,162.9 "/>
<polyline class="st0" points="609.6,239.7 642.4,206.9 675.2,239.7 "/>
<polyline class="st0" points="688.7,234.1 721.5,201.3 688.7,168.5 "/>
<polyline class="st2" points="694.4,239.7 727.1,206.9 759.9,239.7 "/>
<polyline class="st0" points="511.3,234.1 478.5,201.3 511.3,168.5 "/>
<polyline class="st0" points="440.1,239.7 472.9,206.9 505.7,239.7 "/>
<polyline class="st1" points="596,403.6 563.3,370.9 596,338.1 "/>
<polyline class="st0" points="519.2,403.6 552,370.9 519.2,338.1 "/>
<polyline class="st0" points="524.8,332.4 557.6,365.2 590.4,332.4 "/>
<polyline class="st0" points="524.8,409.3 557.6,376.5 590.4,409.3 "/>
<polyline class="st2" points="680.8,403.7 648,370.9 680.8,338.1 "/>
<polyline class="st0" points="604,403.7 636.8,370.9 604,338.1 "/>
<polyline class="st0" points="609.6,332.4 642.4,365.2 675.2,332.4 "/>
<polyline class="st0" points="609.6,409.3 642.4,376.5 675.2,409.3 "/>
<polyline class="st0" points="688.7,403.6 721.5,370.9 688.7,338.1 "/>
<polyline class="st0" points="694.4,332.4 727.1,365.2 759.9,332.4 "/>
<polyline class="st0" points="511.3,403.6 478.5,370.9 511.3,338.1 "/>
<polyline class="st0" points="440.1,332.4 472.9,365.2 505.7,332.4 "/>
<polyline class="st0" points="596,488.4 563.3,455.6 596,422.8 "/>
<polyline class="st0" points="524.8,417.2 557.6,450 590.4,417.2 "/>
<polyline class="st2" points="604,488.4 636.8,455.6 604,422.8 "/>
<polyline class="st0" points="609.6,417.2 642.4,450 675.2,417.2 "/>
<g>
	<defs>
		<rect id="SVGID_1_" width="1200" height="848"/>
	</defs>
	<clipPath id="SVGID_2_">
		<use xlink:href="#SVGID_1_"  style="overflow:visible;"/>
	</clipPath>
	<path class="st3" d="M239.5,528.3h-11.1l-28.2,72.3l-28.3-72.3h-11.5l34,84.7h11.2L239.5,528.3z M284.7,612.9v-32.1
		c0-9.6-0.2-16.4-5.9-22.1c-4-4-10-6.5-18.5-6.5c-16.5,0-23.5,10.1-24.8,11.7l6.5,5.5c1.8-1.7,7.1-8.5,17.6-8.5
		c5.2,0,9.5,1.4,11.7,3.6c2.9,2.9,3.6,5.2,3.6,11.6h-12.2c-5,0-16.9-0.5-24.1,6.7c-2.7,2.7-4.9,6.6-4.9,12.6c0,13,9.7,18.9,21,18.9
		c14.5,0,19.9-8.9,20.5-9.7l0.3,8.2H284.7z M275,584.6c0,5.9,0,11.2-4.7,15.7c-2.9,2.7-7.4,5.2-14.2,5.2c-6.2,0-12-2.8-12-9.9
		c0-10.6,11.5-11.1,19.5-11.1H275z M348.4,612.9v-32.1c0-9.6-0.2-16.4-5.9-22.1c-4-4-10-6.5-18.5-6.5c-16.5,0-23.5,10.1-24.8,11.7
		l6.5,5.5c1.7-1.7,7.1-8.5,17.6-8.5c5.2,0,9.5,1.4,11.7,3.6c2.9,2.9,3.6,5.2,3.6,11.6h-12.2c-5,0-16.9-0.5-24.1,6.7
		c-2.7,2.7-4.9,6.6-4.9,12.6c0,13,9.7,18.9,21,18.9c14.5,0,19.9-8.9,20.5-9.7l0.3,8.2H348.4z M338.7,584.6c0,5.9,0,11.2-4.7,15.7
		c-2.9,2.7-7.4,5.2-14.2,5.2c-6.2,0-12-2.8-12-9.9c0-10.6,11.5-11.1,19.5-11.1H338.7z M410.7,597.1c0-26.2-39.7-12.2-39.7-27.7
		c0-6,6.9-8.7,13.9-8.7c11.9,0,16.5,6,18,7.6l6.5-5.4c-1.1-1.5-6.9-10.6-24.5-10.6c-15,0-23.8,8.2-23.8,17.2
		c0,25.1,39.7,11.6,39.7,27.6c0,6.5-7.5,9.2-15.5,9.2c-12.5,0-17.9-6.7-19.2-8.1l-6.1,5.9c0.9,1.3,7.6,10.6,25,10.6
		C402.2,614.7,410.7,606.1,410.7,597.1 M472.1,612.9v-32.1c0-9.6-0.3-16.4-5.9-22.1c-4-4-10-6.5-18.5-6.5
		c-16.5,0-23.5,10.1-24.8,11.7l6.5,5.5c1.7-1.7,7.1-8.5,17.6-8.5c5.2,0,9.5,1.4,11.7,3.6c2.9,2.9,3.6,5.2,3.6,11.6h-12.2
		c-5,0-16.9-0.5-24.1,6.7c-2.7,2.7-4.9,6.6-4.9,12.6c0,13,9.7,18.9,21,18.9c14.5,0,19.8-8.9,20.5-9.7l0.2,8.2H472.1z M462.4,584.6
		c0,5.9,0,11.2-4.7,15.7c-2.9,2.7-7.4,5.2-14.2,5.2c-6.2,0-12-2.8-12-9.9c0-10.6,11.5-11.1,19.5-11.1H462.4z M540.1,612.9v-34.2
		c0-6.6-0.7-14.6-6.1-20.1c-5-5.1-10.6-6.4-16-6.4c-14,0-19.7,9.4-20.4,10.2l-0.3-8.5h-9.5v58.9h10v-26.2c0-8.2,0.1-15.1,5.4-20.3
		c3.5-3.5,8.4-4.7,11.9-4.7c5.6,0,8.9,1.5,11.2,3.9c3.3,3.2,3.7,8.4,3.7,14.6v32.8H540.1z M638.2,554h-10.4l-20.2,47.4L587.8,554
		H577l25.3,58.9l-1.3,3.8c-2.2,5.4-5,9-10.9,9c-2.7,0-4.5-0.6-5.1-0.9l-2.6,8c1.1,0.5,4.4,1.7,8.6,1.7c10.2,0,15.1-5.9,17.7-12.2
		L638.2,554z M657.2,528.3h-10v84.7h10V528.3z M685.2,534.8c0-3.6-2.9-6.5-6.5-6.5c-3.6,0-6.5,2.9-6.5,6.5c0,3.6,2.9,6.5,6.5,6.5
		C682.3,541.3,685.2,538.4,685.2,534.8 M683.7,554h-10v58.9h10V554z M759.3,583.5c0-15.4-10.1-31.2-31.1-31.2
		c-21,0-31.1,15.9-31.1,31.2c0,15.4,10.1,31.2,31.1,31.2C749.2,614.7,759.3,598.8,759.3,583.5 M748.8,583.5c0,7.6-2.6,13.2-6.4,17
		c-3.4,3.4-8.2,5.2-14.2,5.2c-6,0-10.9-1.9-14.2-5.2c-3.7-3.7-6.4-9.4-6.4-17c0-7.6,2.6-13.2,6.4-17c3.4-3.4,8.2-5.2,14.2-5.2
		c6,0,10.9,1.9,14.2,5.2C746.2,570.2,748.8,575.8,748.8,583.5 M830.7,583.5c0-23.8-16.1-31.2-28.3-31.2c-14.9,0-21.5,9.4-22.1,10.4
		L780,554h-9.7v82.2h10v-30.8c0.5,0.9,6.1,9.4,20.2,9.4C819.7,614.7,830.7,599.8,830.7,583.5 M820.2,584c0,13.9-9.1,21.8-20,21.8
		c-10.1,0-20.2-7-20.2-22c0-15.6,10.6-22.5,20.6-22.5C811.1,561.4,820.2,567.6,820.2,584 M855.7,534.8c0-3.6-2.9-6.5-6.5-6.5
		c-3.6,0-6.5,2.9-6.5,6.5c0,3.6,2.9,6.5,6.5,6.5C852.8,541.3,855.7,538.4,855.7,534.8 M854.2,554h-10v58.9h10V554z M917.3,597.1
		c0-26.2-39.7-12.2-39.7-27.7c0-6,6.9-8.7,13.9-8.7c11.9,0,16.5,6,18,7.6l6.5-5.4c-1.1-1.5-6.9-10.6-24.5-10.6
		c-15,0-23.8,8.2-23.8,17.2c0,25.1,39.7,11.6,39.7,27.6c0,6.5-7.5,9.2-15.5,9.2c-12.5,0-17.9-6.7-19.2-8.1l-6.1,5.9
		c0.9,1.3,7.6,10.6,25,10.6C908.8,614.7,917.3,606.1,917.3,597.1 M969.2,612.2l-2.4-7.9c-0.9,0.3-4.1,1.5-8.5,1.5
		c-4,0-7.1-0.9-9.5-3.2c-3.2-3.2-3.1-8.1-3.1-12.2v-27.7H967V554h-21.2v-19.2h-10V554h-13.2v8.6h13.2v28.8c0,8.5,0.5,12.7,5.2,17.5
		c5.1,5.1,12.2,5.7,16,5.7C963.8,614.7,968.6,612.4,969.2,612.2 M1039.6,583.5c0-15.4-10.1-31.2-31.1-31.2
		c-21,0-31.1,15.9-31.1,31.2c0,15.4,10.1,31.2,31.1,31.2C1029.5,614.7,1039.6,598.8,1039.6,583.5 M1029.1,583.5
		c0,7.6-2.6,13.2-6.4,17c-3.4,3.4-8.2,5.2-14.2,5.2c-6,0-10.9-1.9-14.2-5.2c-3.7-3.7-6.4-9.4-6.4-17c0-7.6,2.6-13.2,6.4-17
		c3.4-3.4,8.2-5.2,14.2-5.2c6,0,10.9,1.9,14.2,5.2C1026.5,570.2,1029.1,575.8,1029.1,583.5"/>
	<path class="st3" d="M331,668.2v-22.4h-4.8v22.4c0,4.2-0.5,7.2-2.9,9.7c-1.9,1.9-4.8,2.8-8,2.8c-3.2,0-6.1-1.1-8-3
		c-2.9-2.9-3-6.7-3-10.3v-21.7h-4.8V668c0,3.5,0,8.6,3.9,12.5c3.2,3.2,7.3,4.5,11.8,4.5c4.6,0,8.7-1.4,11.8-4.5
		C330.8,676.8,331,672.7,331,668.2 M371.1,684.2v-38.4h-4.4v30.8l-22.2-30.8h-4.9v38.4h4.4v-31.1l22.4,31.1H371.1z M384.7,645.8
		h-4.8v38.4h4.8V645.8z M425.7,645.8h-5l-12.8,32.8L395,645.8h-5.2l15.4,38.4h5.1L425.7,645.8z M458.3,684.2V680h-22.8v-13.3h20.7
		v-4.1h-20.7v-12.7h22.1v-4.1h-26.9v38.4H458.3z M496.9,684.2l-12-16.5c0.7-0.2,9.8-1.7,9.8-11c0-2.6-0.8-5.3-3.1-7.7
		c-3.1-3.1-7.5-3.3-12.4-3.3h-13.8v38.4h4.8v-16h9.5l11.5,16H496.9z M489.9,656.9c0,6.9-6.3,7.3-12.1,7.3h-7.7v-14.5h8
		c3.6,0,7.6,0.1,10,2.4C489.4,653.3,489.9,654.8,489.9,656.9 M530.5,673.7c0-15.4-24.4-7.8-24.4-18.3c0-4.3,3.6-6.4,9.1-6.4
		c7.7,0,11.1,4.9,11.6,5.6l3.3-2.6c-0.6-0.9-4.3-7.1-14.9-7.1c-9.2,0-14.1,5.2-14.1,10.7c0,15.1,24.4,8.2,24.4,18.2
		c0,4.7-4,7.1-10.3,7.1c-8.2,0-11.3-5-12-5.9l-3.4,2.7c0.6,0.8,4.5,7.4,15.4,7.4C524.7,685.1,530.5,680.8,530.5,673.7 M543.1,645.8
		h-4.8v38.4h4.8V645.8z M579.5,649.9v-4.1h-31.3v4.1h13.3v34.3h4.8v-34.3H579.5z M614.1,645.8h-5.3l-11.1,17.3l-11.2-17.3h-5.6
		l14.2,21.5v16.9h4.8v-16.9L614.1,645.8z M668.9,665c0-9.9-6.2-20.1-19.2-20.1c-13,0-19.2,10.3-19.2,20.1c0,9.9,6.2,20.1,19.2,20.1
		C662.7,685.1,668.9,674.8,668.9,665 M663.9,665c0,8.2-4.6,15.9-14.2,15.9c-9.6,0-14.2-7.8-14.2-15.9c0-8.2,4.6-15.9,14.2-15.9
		C659.3,649.1,663.9,656.8,663.9,665 M702.2,649.9v-4.1H676v38.4h4.8v-17.5h20v-4.1h-20v-12.7H702.2z M753.2,645.8h-5l-12.8,32.8
		l-12.9-32.8h-5.2l15.4,38.4h5.1L753.2,645.8z M788.5,684.2l-16-38.4h-5.7l-16,38.4h5L760,674h19.1l4.1,10.2H788.5z M777.5,669.9
		h-15.8l7.9-19.4L777.5,669.9z M827.5,684.2l-16-38.4h-5.7l-16,38.4h5L799,674h19.1l4.1,10.2H827.5z M816.5,669.9h-15.8l7.9-19.4
		L816.5,669.9z M860.1,673.7c0-15.4-24.4-7.8-24.4-18.3c0-4.3,3.6-6.4,9.1-6.4c7.7,0,11.1,4.9,11.6,5.6l3.3-2.6
		c-0.6-0.9-4.2-7.1-14.9-7.1c-9.2,0-14.1,5.2-14.1,10.7c0,15.1,24.4,8.2,24.4,18.2c0,4.7-4,7.1-10.3,7.1c-8.2,0-11.3-5-12-5.9
		l-3.4,2.7c0.6,0.8,4.5,7.4,15.4,7.4C854.3,685.1,860.1,680.8,860.1,673.7 M900.5,684.2l-16-38.4h-5.7l-16,38.4h5L872,674h19.1
		l4.1,10.2H900.5z M889.5,669.9h-15.8l7.9-19.4L889.5,669.9z"/>
</g>
</svg>
